<?xml version="1.0" encoding="UTF-8" standalone="no"?>
<!DOCTYPE svg PUBLIC "-//W3C//DTD SVG 1.1//EN" "http://www.w3.org/Graphics/SVG/1.1/DTD/svg11.dtd">
<svg version="1.1" xmlns="http://www.w3.org/2000/svg" xmlns:xlink="http://www.w3.org/1999/xlink" preserveAspectRatio="xMidYMid meet" viewBox="-1 -0.9999999999999689 648.4300422871853 644" width="644.43" height="640"><defs><path d="M49.67 279.23L0 320C8.84 331.26 14.09 343.58 15.75 356.96C17.4 370.35 15.46 384.8 9.93 400.31L49.67 425.02L79.05 444.6L103.06 470.73L114.23 531.27C126.26 517.83 138.06 509.36 149.65 505.86C161.24 502.36 172.61 503.83 183.77 510.27L177.56 557.22C190.45 565.61 201.13 573.93 209.62 582.16C218.1 590.4 224.39 598.56 228.47 606.64C236.9 603.56 247.54 604.8 260.37 610.36C273.2 615.92 288.23 625.8 305.45 640L386.16 632.59L399.82 586.87L471.84 591.81C478.63 570.67 488.02 554.54 500.03 543.42C512.03 532.3 526.64 526.19 543.85 525.1C558.16 509.65 572.14 499.36 585.8 494.21C599.46 489.06 612.79 489.06 625.8 494.21C619.66 481.05 617.62 468.09 619.69 455.32C621.76 442.56 627.94 429.98 638.22 417.61L605.94 383.01L638.22 311.35C628.91 295.12 624.77 279.91 625.8 265.7C626.84 251.49 633.05 238.29 644.43 226.1C627.67 225.89 614.84 222.49 605.94 215.91C597.04 209.32 592.07 199.54 591.04 186.56L553.79 114.9L478.05 60.54C466.09 58.72 453.6 54.72 440.56 48.55C427.53 42.37 413.94 34.01 399.82 23.47C380.34 29.96 362.74 31.24 347.01 27.33C331.28 23.41 317.43 14.31 305.45 0L203.63 30.89C186.68 54.59 168.69 72.83 149.65 85.6C130.61 98.36 110.53 105.66 89.4 107.49L9.93 142.08L9.93 221.16L49.67 279.23Z" id="eziftfD0a"></path><path d="M128.55 273.43C153.94 287.77 177.13 290.05 198.14 280.27C219.15 270.5 237.97 248.67 254.59 214.78L213.87 190.2C196.48 187.89 183.61 188.86 175.27 193.1C166.93 197.34 163.11 204.85 163.83 215.64L131.36 223.06L128.55 273.43Z" id="a1wUMXbyo"></path><path d="M91.11 71.29L114.05 34.88L174.76 84.88L66.43 169.4L58.1 84.88L91.11 71.29Z" id="c1dpdfLdQh"></path><path d="M379.52 157.5C384.56 176.02 395.6 193.12 412.67 208.79C429.73 224.47 452.81 238.72 481.9 251.55L489.05 204.52L446.41 168L427.14 140.83L379.52 157.5Z" id="d232vY6atw"></path><path d="M424.76 391.32L406.52 467.3L379.76 446.39L357.86 461.79L318.94 450.79L280.02 470.6L265.24 394.4L424.76 391.32Z" id="c3Jcr4gyDE"></path></defs><g><g><g><filter id="shadow15910012" x="-9" y="-9" width="663.43" height="659" filterUnits="userSpaceOnUse" primitiveUnits="userSpaceOnUse"><feFlood></feFlood><feComposite in2="SourceAlpha" operator="in"></feComposite><feGaussianBlur stdDeviation="1"></feGaussianBlur><feOffset dx="1" dy="1" result="afterOffset"></feOffset><feFlood flood-color="#000000" flood-opacity="0.5"></feFlood><feComposite in2="afterOffset" operator="in"></feComposite><feMorphology operator="dilate" radius="1"></feMorphology><feComposite in2="SourceAlpha" operator="out"></feComposite></filter><path d="M49.67 279.23L0 320C8.84 331.26 14.09 343.58 15.75 356.96C17.4 370.35 15.46 384.8 9.93 400.31L49.67 425.02L79.05 444.6L103.06 470.73L114.23 531.27C126.26 517.83 138.06 509.36 149.65 505.86C161.24 502.36 172.61 503.83 183.77 510.27L177.56 557.22C190.45 565.61 201.13 573.93 209.62 582.16C218.1 590.4 224.39 598.56 228.47 606.64C236.9 603.56 247.54 604.8 260.37 610.36C273.2 615.92 288.23 625.8 305.45 640L386.16 632.59L399.82 586.87L471.84 591.81C478.63 570.67 488.02 554.54 500.03 543.42C512.03 532.3 526.64 526.19 543.85 525.1C558.16 509.65 572.14 499.36 585.8 494.21C599.46 489.06 612.79 489.06 625.8 494.21C619.66 481.05 617.62 468.09 619.69 455.32C621.76 442.56 627.94 429.98 638.22 417.61L605.94 383.01L638.22 311.35C628.91 295.12 624.77 279.91 625.8 265.7C626.84 251.49 633.05 238.29 644.43 226.1C627.67 225.89 614.84 222.49 605.94 215.91C597.04 209.32 592.07 199.54 591.04 186.56L553.79 114.9L478.05 60.54C466.09 58.72 453.6 54.72 440.56 48.55C427.53 42.37 413.94 34.01 399.82 23.47C380.34 29.96 362.74 31.24 347.01 27.33C331.28 23.41 317.43 14.31 305.45 0L203.63 30.89C186.68 54.59 168.69 72.83 149.65 85.6C130.61 98.36 110.53 105.66 89.4 107.49L9.93 142.08L9.93 221.16L49.67 279.23Z" id="jCpkxkdcK" fill="white" fill-opacity="1" filter="url(#shadow15910012)"></path></g><use xlink:href="#eziftfD0a" opacity="1" fill="#4d5151" fill-opacity="1"></use><g><use xlink:href="#eziftfD0a" opacity="1" fill-opacity="0" stroke="#474343" stroke-width="1" stroke-opacity="1"></use></g></g><g><g><filter id="shadow11714023" x="90.55" y="150.98" width="213.04" height="185.23" filterUnits="userSpaceOnUse" primitiveUnits="userSpaceOnUse"><feFlood></feFlood><feComposite in2="SourceAlpha" operator="in"></feComposite><feGaussianBlur stdDeviation="3.16"></feGaussianBlur><feOffset dx="-11" dy="-12" result="afterOffset"></feOffset><feFlood flood-color="#000000" flood-opacity="0.67"></feFlood><feComposite in2="afterOffset" operator="in"></feComposite><feMorphology operator="dilate" radius="1"></feMorphology><feComposite in2="SourceAlpha" operator="out"></feComposite></filter><path d="M128.55 273.43C153.94 287.77 177.13 290.05 198.14 280.27C219.15 270.5 237.97 248.67 254.59 214.78L213.87 190.2C196.48 187.89 183.61 188.86 175.27 193.1C166.93 197.34 163.11 204.85 163.83 215.64L131.36 223.06L128.55 273.43Z" id="f1bhNyP7lq" fill="white" fill-opacity="1" filter="url(#shadow11714023)"></path></g><use xlink:href="#a1wUMXbyo" opacity="1" fill="#4d5151" fill-opacity="1"></use></g><g><use xlink:href="#c1dpdfLdQh" opacity="1" fill="#4d5151" fill-opacity="1"></use></g><g><g><filter id="shadow4747793" x="327.52" y="88.83" width="219.52" height="221.71" filterUnits="userSpaceOnUse" primitiveUnits="userSpaceOnUse"><feFlood></feFlood><feComposite in2="SourceAlpha" operator="in"></feComposite><feGaussianBlur stdDeviation="4.47"></feGaussianBlur><feOffset dx="6" dy="-7" result="afterOffset"></feOffset><feFlood flood-color="#000000" flood-opacity="0.67"></feFlood><feComposite in2="afterOffset" operator="in"></feComposite><feMorphology operator="dilate" radius="0"></feMorphology><feComposite in2="SourceAlpha" operator="out"></feComposite></filter><path d="M379.52 157.5C384.56 176.02 395.6 193.12 412.67 208.79C429.73 224.47 452.81 238.72 481.9 251.55L489.05 204.52L446.41 168L427.14 140.83L379.52 157.5Z" id="aVsSW8voq" fill="white" fill-opacity="1" filter="url(#shadow4747793)"></path></g><use xlink:href="#d232vY6atw" opacity="1" fill="#4d5151" fill-opacity="1"></use></g><g><g><filter id="shadow11940748" x="220.24" y="346.32" width="250.52" height="184.28" filterUnits="userSpaceOnUse" primitiveUnits="userSpaceOnUse"><feFlood></feFlood><feComposite in2="SourceAlpha" operator="in"></feComposite><feGaussianBlur stdDeviation="3.32"></feGaussianBlur><feOffset dx="-1" dy="15" result="afterOffset"></feOffset><feFlood flood-color="#000000" flood-opacity="0.5"></feFlood><feComposite in2="afterOffset" operator="in"></feComposite><feMorphology operator="dilate" radius="3"></feMorphology><feComposite in2="SourceAlpha" operator="out"></feComposite></filter><path d="M424.76 391.32L406.52 467.3L379.76 446.39L357.86 461.79L318.94 450.79L280.02 470.6L265.24 394.4L424.76 391.32Z" id="ct0yJULcR" fill="white" fill-opacity="1" filter="url(#shadow11940748)"></path></g></g></g></svg>